<?xml version="1.0" encoding="UTF-8"?>
<svg width="120px" height="40px" viewBox="0 0 120 40" version="1.1" xmlns="http://www.w3.org/2000/svg">
    <g fill="none" fill-rule="evenodd">
        <rect fill="#000000" width="120" height="40" rx="6"/>
        <g transform="translate(8.000000, 6.000000)" fill="#FFFFFF">
            <path d="M24.9,20.3c-0.3,0.6-0.9,1-1.5,1c-0.8,0-1.1-0.4-1.1-1.2v-8.3h2.6V9.7h-2.6V6.9h-2v2.8h-1.9v2.1h1.9v8.3c0,2,1,3.1,3,3.1c1.2,0,2.3-0.5,2.9-1.4L24.9,20.3z"/>
            <path d="M35.9,17.8c0-2.9-2.3-5.2-5.2-5.2s-5.2,2.3-5.2,5.2s2.3,5.2,5.2,5.2S35.9,20.7,35.9,17.8z M33.9,17.8c0,1.8-1.4,3.2-3.2,3.2s-3.2-1.4-3.2-3.2s1.4-3.2,3.2-3.2S33.9,16,33.9,17.8z"/>
            <path d="M44.7,12.6c-0.8,0-1.6,0.3-2.2,0.8v-0.6h-2v10h2v-6.5c0.4-0.7,1.2-1.2,2-1.2c1.2,0,1.9,0.7,1.9,2v5.7h2v-5.7C48.4,14.1,46.9,12.6,44.7,12.6z"/>
            <path d="M56.6,17.8c0-2.9-2.3-5.2-5.2-5.2s-5.2,2.3-5.2,5.2s2.3,5.2,5.2,5.2S56.6,20.7,56.6,17.8z M54.6,17.8c0,1.8-1.4,3.2-3.2,3.2s-3.2-1.4-3.2-3.2s1.4-3.2,3.2-3.2S54.6,16,54.6,17.8z"/>
        </g>
    </g>
</svg>
