<?xml version="1.0" encoding="UTF-8"?>
<svg width="120px" height="40px" viewBox="0 0 120 40" version="1.1" xmlns="http://www.w3.org/2000/svg">
    <g fill="none" fill-rule="evenodd">
        <rect fill="#000000" width="120" height="40" rx="6"/>
        <g transform="translate(8.000000, 6.000000)" fill="#FFFFFF">
            <path d="M52.6,17.1l-7.9-4.5c-0.5-0.3-1.1-0.3-1.6,0l-7.9,4.5c-0.5,0.3-0.8,0.8-0.8,1.4v9c0,0.6,0.3,1.1,0.8,1.4l7.9,4.5c0.5,0.3,1.1,0.3,1.6,0l7.9-4.5c0.5-0.3,0.8-0.8,0.8-1.4v-9C53.4,17.9,53.1,17.4,52.6,17.1z M43.1,29.9l-6.3-3.6v-7.2l6.3,3.6V29.9z"/>
            <path d="M24.9,20.3c-0.3,0.6-0.9,1-1.5,1c-0.8,0-1.1-0.4-1.1-1.2v-8.3h2.6V9.7h-2.6V6.9h-2v2.8h-1.9v2.1h1.9v8.3c0,2,1,3.1,3,3.1c1.2,0,2.3-0.5,2.9-1.4L24.9,20.3z"/>
            <path d="M35.9,17.8c0-2.9-2.3-5.2-5.2-5.2s-5.2,2.3-5.2,5.2s2.3,5.2,5.2,5.2S35.9,20.7,35.9,17.8z M33.9,17.8c0,1.8-1.4,3.2-3.2,3.2s-3.2-1.4-3.2-3.2s1.4-3.2,3.2-3.2S33.9,16,33.9,17.8z"/>
        </g>
    </g>
</svg>
